<?xml version="1.0" encoding="UTF-8" standalone="no"?>
<svg width="659px" height="807px" viewBox="0 0 659 807" version="1.1" xmlns="http://www.w3.org/2000/svg" xmlns:xlink="http://www.w3.org/1999/xlink" xmlns:sketch="http://www.bohemiancoding.com/sketch/ns">
    <!-- Generator: Sketch 3.5.2 (25235) - http://www.bohemiancoding.com/sketch -->
    <title>Path 1</title>
    <desc>Created with Sketch.</desc>
    <defs></defs>
    <g id="Page-1" stroke="none" stroke-width="1" fill="none" fill-rule="evenodd" sketch:type="MSPage">
        <g id="Desktop" sketch:type="MSArtboardGroup" transform="translate(-211.000000, -86.000000)" stroke="#FFFFFF" stroke-width="13" fill="#FFFFFF" stroke-linecap="round" stroke-linejoin="round">
            <path d="M776.123038,872.026876 L744.8472,659.082233 C744.8472,659.082233 861.194337,514.37803 861.194309,401.854424 C861.19428,289.330819 881.490464,255.694502 799.47302,170.461561 C717.455576,85.2286191 666.679296,98.6475226 564.349612,93.3719189 C462.019928,88.0963151 413.632037,124.541915 378.144664,146.479494 C342.657291,168.417073 337.732408,200.553279 323.965025,233.818841 C310.197642,267.084403 312.283835,305.61631 312.283835,305.61631 L314.136713,331.730117 C314.136713,331.730117 232.781836,403.022117 224.994069,411.924414 C217.206301,420.826711 216.079481,427.878063 220.65003,438.595943 C225.220579,449.313822 242.364026,452.656746 242.364026,452.656746 L266.061034,464.709749 C266.061034,464.709749 273.948435,471.563287 269.779184,485.785462 C265.609934,500.007637 254.347258,521.490272 254.347258,521.490272 L271.996076,538.525582 L254.917375,555.207681 L258.288497,575.645126 L254.917374,592.928326 C254.917374,592.928326 240.932997,611.493262 237.900642,624.074028 C234.868286,636.654795 240.720239,651.830018 240.720239,651.830018 C240.720239,651.830018 239.75349,669.116237 271.996076,682.560527 C304.238663,696.004816 315.446909,683.241449 340.853917,690.000035 C366.260924,696.75862 376.24677,693.312982 390.385871,710.319724 C404.524972,727.326466 400.997146,721.388113 402.02368,763.576025 C403.050214,805.763936 392.756993,842.864187 392.756993,842.864187 L392.695024,882.828102 L778.744334,885.579533 L776.123038,872.026876 Z M530.595008,548.114049 L504.010236,489.763882 L404.878162,457.384994 L315.183992,481.565362 L293.513672,502.749522 L274.023438,539.792964 L295.22992,555.612315 L304.512902,574.983879 L327.807111,581.664155 L348.064831,587.656573 L350.134601,566.785358 L327.676976,543.77001 L327.738945,526.957776 L357.366403,515.034908 L413.510467,510.622704 L469.041036,520.543967 L493.772927,555.612315 L484.96711,586.894359 L475.535404,646.892898 L453.554941,792.954221 L445.226286,883.199917 L552.755188,883.199901 L552.755181,694.404657 L557.644549,605.596647 L568.049171,528.438839 L553.238541,493.172187 L484.967111,432.064393 L449.830595,383.083964 L406.365422,352.911178 L346.428845,351.876292 L277.60589,389.900572 L243.595703,450.839847 C246.540039,454.59668 261.674805,462.478516 268.553711,465.603516 C273.962891,461.033203 308.037109,431.755859 308.037109,431.755859 L362.228516,408.349609 L426.126953,418.769531 L490.740234,465.603516 L505.324219,492.822266 L530.595008,548.114049 Z" id="Path-1" sketch:type="MSShapeGroup"></path>
        </g>
    </g>
</svg>